<?xml version="1.0" encoding="UTF-8" standalone="no"?>
<!-- Created with Inkscape (http://www.inkscape.org/) -->

<svg
   version="1.1"
   id="svg1"
   width="266.66666"
   height="133.33333"
   viewBox="0 0 266.66666 133.33333"
   sodipodi:docname="larossa_logo_2023.svg"
   inkscape:version="1.3.2 (091e20ef0f, 2023-11-25)"
   xmlns:inkscape="http://www.inkscape.org/namespaces/inkscape"
   xmlns:sodipodi="http://sodipodi.sourceforge.net/DTD/sodipodi-0.dtd"
   xmlns="http://www.w3.org/2000/svg"
   xmlns:svg="http://www.w3.org/2000/svg">
  <defs
     id="defs1" />
  <sodipodi:namedview
     id="namedview1"
     pagecolor="#505050"
     bordercolor="#ffffff"
     borderopacity="1"
     inkscape:showpageshadow="0"
     inkscape:pageopacity="0"
     inkscape:pagecheckerboard="1"
     inkscape:deskcolor="#505050"
     inkscape:zoom="4.332797"
     inkscape:cx="137.32469"
     inkscape:cy="93.126912"
     inkscape:window-width="1920"
     inkscape:window-height="1011"
     inkscape:window-x="0"
     inkscape:window-y="0"
     inkscape:window-maximized="1"
     inkscape:current-layer="g1" />
  <g
     inkscape:groupmode="layer"
     inkscape:label="Image"
     id="g1">
    <path
       style="fill:#f9f9f9;stroke:none"
       d="m 204.54313,55.643631 v 0.88889 c 5.45092,-0.69249 30.67654,-8.38318 16.72085,-16.48286 -7.01002,-4.06851 -19.33353,-0.94185 -27.38752,-3.0727 l 3.55556,-4.44444 c -3.777,-1.03311 -10.41676,3.75582 -5.18793,6.72565 6.22439,3.53529 14.4843,-1.42975 21.18382,1.1797 4.50068,1.753 5.96502,5.88159 2.36419,9.40192 -1.19592,1.16918 -2.67647,2.05983 -4.14129,2.84636 -2.26613,1.21679 -4.72598,2.00953 -7.10768,2.95748 m 24,24 c -7.26564,1.68087 -14.72818,5.20953 -22.22154,2.4321 -5.88823,-2.18248 -8.82075,-8.17544 -3.45953,-12.72634 10.11386,-8.58521 26.18069,-4.25872 35.45885,-15.48354 -13.14754,5.47378 -26.36697,9.74343 -40.88889,7.47531 -5.23545,-0.8177 -18.3187,-3.68275 -11.55555,-11.03086 -10.01521,-2.30433 -9.95904,13.7732 -7.90741,19.55555 6.7189,18.93668 37.62751,26.54221 50.57407,9.77778 m 6.22222,-13.33333 c 3.1189,-0.81803 10.87432,0.0315 6.67353,4.96227 -2.11116,2.47802 -6.40948,3.61313 -9.34019,4.8155 2.0795,0.49919 4.0769,0.22774 6.2229,-0.13031 1.83968,-0.30696 3.63579,-0.76461 5.29356,-1.64747 12.20155,-6.49808 -4.10137,-21.55301 -8.8498,-7.99999"
       id="path1"
       sodipodi:nodetypes="ccsccssssccsscscsccscssc" />
    <path
       style="fill:#f9f9f9;stroke:none"
       d="m 74.0414,55.643631 v 0.88889 c 5.45092,-0.69249 30.67654,-8.38318 16.72085,-16.48286 -7.01002,-4.06851 -19.33353,-0.94185 -27.38752,-3.0727 l 3.55556,-4.44444 c -3.777,-1.03311 -10.41676,3.75582 -5.18793,6.72565 6.22439,3.53529 14.4843,-1.42975 21.18382,1.1797 4.50068,1.753 5.96502,5.88159 2.36419,9.40192 -1.19592,1.16918 -2.67647,2.05983 -4.14129,2.84636 -2.26613,1.21679 -4.72598,2.00953 -7.10768,2.95748 m 24,24 c -7.26564,1.68087 -14.72818,5.20953 -22.22154,2.4321 -5.88823,-2.18248 -8.82075,-8.17544 -3.45953,-12.72634 10.11386,-8.58521 26.18069,-4.25872 35.45885,-15.48354 -13.14754,5.47378 -26.36697,9.74343 -40.88889,7.47531 -5.23545,-0.8177 -18.3187,-3.68275 -11.55555,-11.03086 -10.01521,-2.30433 -9.95904,13.7732 -7.90741,19.55555 6.7189,18.93668 37.62751,26.54221 50.57407,9.77778 m 6.22222,-13.33333 c 3.1189,-0.81803 10.87432,0.0315 6.67353,4.96227 -2.11116,2.47802 -6.40948,3.61313 -9.34019,4.8155 2.0795,0.49919 4.0769,0.22774 6.2229,-0.13031 1.83968,-0.30696 3.63579,-0.76461 5.29356,-1.64747 12.20155,-6.49808 -4.10137,-21.55301 -8.8498,-7.99999"
       id="path2"
       sodipodi:nodetypes="ccsccssssccsscscsccscssc" />
  </g>
</svg>
