<?xml version="1.0" encoding="UTF-8" standalone="no"?>
<!-- Created with Inkscape (http://www.inkscape.org/) -->

<svg
   version="1.1"
   id="svg1"
   width="1432.4092"
   height="555.31836"
   viewBox="0 0 1432.4092 555.31837"
   sodipodi:docname="larossa_logo_2023.svg"
   inkscape:version="1.3.2 (091e20ef0f, 2023-11-25)"
   xml:space="preserve"
   xmlns:inkscape="http://www.inkscape.org/namespaces/inkscape"
   xmlns:sodipodi="http://sodipodi.sourceforge.net/DTD/sodipodi-0.dtd"
   xmlns:xlink="http://www.w3.org/1999/xlink"
   xmlns="http://www.w3.org/2000/svg"
   xmlns:svg="http://www.w3.org/2000/svg"><defs
     id="defs1" /><sodipodi:namedview
     id="namedview1"
     pagecolor="#505050"
     bordercolor="#ffffff"
     borderopacity="1"
     inkscape:showpageshadow="0"
     inkscape:pageopacity="0"
     inkscape:pagecheckerboard="1"
     inkscape:deskcolor="#505050"
     inkscape:zoom="0.5"
     inkscape:cx="10040"
     inkscape:cy="-10181"
     inkscape:window-width="1920"
     inkscape:window-height="1011"
     inkscape:window-x="0"
     inkscape:window-y="0"
     inkscape:window-maximized="1"
     inkscape:current-layer="g1"
     showguides="true"><sodipodi:guide
       position="-9283.8113,-10895.97"
       orientation="1,0"
       id="guide3"
       inkscape:locked="false" /><sodipodi:guide
       position="-9052.3902,-10895.97"
       orientation="1,0"
       id="guide4"
       inkscape:locked="false" /><sodipodi:guide
       position="-9240.1036,-10818.02"
       orientation="1,0"
       id="guide5"
       inkscape:locked="false" /><sodipodi:guide
       position="-9096.0979,-10827.673"
       orientation="1,0"
       id="guide6"
       inkscape:locked="false" /><sodipodi:guide
       position="-7580.554,-8280.5526"
       orientation="0,-1"
       id="guide13"
       inkscape:locked="false" /><sodipodi:guide
       position="-8248.2809,-8515.1562"
       orientation="0,-1"
       id="guide14"
       inkscape:locked="false" /><sodipodi:guide
       position="-8638.8701,-7611.437"
       orientation="0,-1"
       id="guide15"
       inkscape:locked="false" /><sodipodi:guide
       position="-8626.7817,-7601.8738"
       orientation="1,0"
       id="guide16"
       inkscape:locked="false" /><sodipodi:guide
       position="-8623.2533,-7611.437"
       orientation="1,0"
       id="guide17"
       inkscape:locked="false" /><sodipodi:guide
       position="-8636.4344,-7603.767"
       orientation="1,0"
       id="guide18"
       inkscape:locked="false" /><sodipodi:guide
       position="-8645.0314,-7617.2015"
       orientation="1,0"
       id="guide19"
       inkscape:locked="false" /><sodipodi:guide
       position="-8640.7798,-7603.2573"
       orientation="0.99999683,0.002517453"
       id="guide20"
       inkscape:locked="false" /><sodipodi:guide
       position="-8655.5477,-7615.2646"
       orientation="0,-1"
       id="guide21"
       inkscape:locked="false" /><sodipodi:guide
       position="-8590.1619,-7378.228"
       orientation="1,0"
       id="guide22"
       inkscape:locked="false" /><sodipodi:guide
       position="-4543.5398,-4944.7424"
       orientation="0,-1"
       id="guide25"
       inkscape:locked="false" /><sodipodi:guide
       position="-4278.2313,-4692.8577"
       orientation="0,-1"
       id="guide26"
       inkscape:locked="false" /><sodipodi:guide
       position="-4185.5229,-4692.8578"
       orientation="1,0"
       id="guide27"
       inkscape:locked="false" /><sodipodi:guide
       position="-4343.1071,-4516.3878"
       orientation="0,-1"
       id="guide28"
       inkscape:locked="false" /><sodipodi:guide
       position="-1913.1026,-3438.7692"
       orientation="1,0"
       id="guide38"
       inkscape:locked="false" /></sodipodi:namedview><g
     inkscape:groupmode="layer"
     inkscape:label="Image"
     id="g1"
     transform="translate(-9289.6405,10702.567)"><text
       xml:space="preserve"
       style="font-style:normal;font-variant:normal;font-weight:bold;font-stretch:normal;font-size:70.2774px;line-height:1.4;font-family:Quaaykop;-inkscape-font-specification:'Quaaykop, Bold';font-variant-ligatures:none;font-variant-caps:normal;font-variant-numeric:normal;font-variant-east-asian:normal;text-align:center;letter-spacing:6px;text-anchor:middle;fill:#f9f9f9;stroke-width:2.00001;stroke-linecap:round;stroke-linejoin:round;stroke-miterlimit:0;stroke-dashoffset:0.377953;paint-order:fill markers stroke"
       id="text2"
       transform="translate(1.7791591,-19.62238)"><textPath
         xlink:href="#path3"
         startOffset="50%"
         id="textPath6"><tspan
           id="tspan2"
           style="letter-spacing:6px;fill:#f9f9f9;stroke-width:2.00001">La Rossa</tspan></textPath></text><text
       xml:space="preserve"
       style="font-style:normal;font-variant:normal;font-weight:bold;font-stretch:normal;font-size:93.0615px;line-height:1.4;font-family:Quaaykop;-inkscape-font-specification:'Quaaykop, Bold';font-variant-ligatures:none;font-variant-caps:normal;font-variant-numeric:normal;font-variant-east-asian:normal;text-align:center;letter-spacing:3px;text-anchor:middle;fill:#f9f9f9;stroke-width:1.99999;stroke-linecap:round;stroke-linejoin:round;stroke-miterlimit:0;stroke-dashoffset:0.377953;paint-order:fill markers stroke"
       id="text3"
       transform="translate(1853.0287,-2779.7892)"><textPath
         xlink:href="#circle7"
         startOffset="50%"
         id="textPath7"><tspan
           id="tspan3"
           style="letter-spacing:3px;fill:#f9f9f9;stroke-width:1.99999">Caffé</tspan></textPath></text><circle
       style="fill:none;stroke:none;stroke-width:1.99999;stroke-linecap:round;stroke-linejoin:round;stroke-miterlimit:0;stroke-dashoffset:0.377953;paint-order:fill markers stroke"
       id="path3"
       cx="1540.4054"
       cy="-691.37866"
       r="191.32388"
       transform="matrix(0,-1,-1,0,0,0)" /><circle
       style="fill:none;stroke:none;stroke-width:2;stroke-linecap:round;stroke-linejoin:round;stroke-miterlimit:0;stroke-dashoffset:0.377953;paint-order:fill markers stroke"
       id="circle7"
       cx="-1540.4054"
       cy="-691.37866"
       r="211.75333"
       transform="rotate(90)" /><text
       xml:space="preserve"
       style="font-style:normal;font-variant:normal;font-weight:bold;font-stretch:normal;font-size:70.2774px;line-height:1.4;font-family:Quaaykop;-inkscape-font-specification:'Quaaykop, Bold';font-variant-ligatures:none;font-variant-caps:normal;font-variant-numeric:normal;font-variant-east-asian:normal;text-align:center;letter-spacing:6px;text-anchor:middle;fill:#f9f9f9;stroke-width:2.00001;stroke-linecap:round;stroke-linejoin:round;stroke-miterlimit:0;stroke-dashoffset:0.377953;paint-order:fill markers stroke"
       id="text8"
       transform="translate(33.743998,513.9937)"><textPath
         xlink:href="#path3"
         startOffset="50%"
         id="textPath8"><tspan
           id="tspan8"
           style="letter-spacing:6px;fill:#f9f9f9;stroke-width:2.00001">La Rossa</tspan></textPath></text><text
       xml:space="preserve"
       style="font-style:normal;font-variant:normal;font-weight:bold;font-stretch:normal;font-size:93.0615px;line-height:1.4;font-family:Quaaykop;-inkscape-font-specification:'Quaaykop, Bold';font-variant-ligatures:none;font-variant-caps:normal;font-variant-numeric:normal;font-variant-east-asian:normal;text-align:center;letter-spacing:3px;text-anchor:middle;fill:#f9f9f9;stroke-width:1.99999;stroke-linecap:round;stroke-linejoin:round;stroke-miterlimit:0;stroke-dashoffset:0.377953;paint-order:fill markers stroke"
       id="text9"
       transform="translate(30.804847,643.18994)"><textPath
         xlink:href="#circle7"
         startOffset="50%"
         id="textPath9"><tspan
           id="tspan9"
           style="letter-spacing:3px;fill:#f9f9f9;stroke-width:1.99999">Caffé</tspan></textPath></text><path
       id="text4"
       style="font-weight:bold;font-size:158.63px;line-height:1.4;font-family:Quaaykop;-inkscape-font-specification:'Quaaykop, Bold';font-variant-ligatures:none;text-align:center;letter-spacing:13.368px;text-anchor:middle;fill:#ff0000;stroke-width:3;stroke-linecap:round;stroke-linejoin:round;stroke-miterlimit:0;stroke-dashoffset:0.377953;paint-order:fill markers stroke"
       d="m 10532.188,-10702.566 c 0,0 -125.605,33.622 -101.915,60.091 23.689,26.47 54.868,7.059 101.915,20.721 30.627,8.895 25.253,70.646 -47.336,83.949 17.135,23.2 231.08,-51.188 152.982,-104.67 -62.591,-42.864 -254.988,20.722 -105.646,-60.091 z m -664.8521,145.816 c -10.8605,0 -21.5104,2.158 -31.9531,6.475 -18.3794,7.379 -31.2591,19.631 -38.6387,36.757 -4.5948,10.304 -6.8925,26.039 -6.8925,47.204 v 8.144 l -21.9297,0.418 -3.5508,17.752 c 14.063,0 22.5565,0.07 25.4805,0.209 v 126.986 c 0,7.798 -0.6278,12.252 -1.8809,13.366 -1.2532,0.974 -3.6186,1.462 -7.0996,1.462 h -15.0391 l -4.3847,18.17 c 21.4425,0 35.9226,-0.416 43.4414,-1.252 1.3924,-0.139 2.9249,-0.209 4.5957,-0.209 5.7087,0 11.0694,0.14 16.082,0.418 7.2403,0.697 23.3905,1.043 48.4531,1.043 l 3.9688,-18.17 h -28.6133 c -1.3924,0 -2.5762,-0.139 -3.5508,-0.418 -0.9747,-0.417 -2.1584,-1.74 -3.5508,-3.968 -1.2531,-2.228 -1.8789,-6.545 -1.8789,-12.949 v -122.598 l 30.9102,1.461 5.4316,-25.063 -36.3418,1.672 v -36.969 c 0.6962,-14.341 3.0638,-24.574 7.1016,-30.701 4.038,-6.265 6.8219,-9.468 8.3535,-9.607 1.5316,-0.139 2.3666,-0.209 2.5059,-0.209 2.0885,0 4.3862,1.532 6.8925,4.596 4.3164,5.151 6.4747,13.366 6.4747,24.644 0,2.228 1.114,4.663 3.3418,7.309 2.3671,2.506 5.9881,3.759 10.8613,3.759 6.2658,0 10.652,-2.297 13.1582,-6.892 l 18.1699,-31.119 c -5.7088,-6.266 -12.7414,-11.487 -21.0957,-15.664 -8.3542,-4.038 -17.9618,-6.057 -28.8223,-6.057 z m 163.9531,0 c -10.861,0 -21.513,2.158 -31.955,6.475 -18.3793,7.379 -31.2591,19.631 -38.6387,36.757 -4.5949,10.304 -6.8926,26.039 -6.8926,47.204 v 8.144 l -21.9297,0.418 -3.5507,17.752 c 14.063,0 22.5564,0.07 25.4804,0.209 v 126.986 c 0,7.798 -0.6258,12.252 -1.8789,13.366 -1.2532,0.974 -3.6206,1.462 -7.1015,1.462 h -15.0371 l -4.3868,18.17 c 21.4426,0 35.9246,-0.416 43.4434,-1.252 1.3924,-0.139 2.9228,-0.209 4.5937,-0.209 5.7087,0 11.0695,0.14 16.0821,0.418 7.2404,0.697 23.3924,1.043 48.4554,1.043 l 3.968,-18.17 h -28.613 c -1.393,0 -2.576,-0.139 -3.551,-0.418 -0.975,-0.417 -2.158,-1.74 -3.55,-3.968 -1.253,-2.228 -1.881,-6.545 -1.881,-12.949 v -122.598 l 30.912,1.461 5.43,-25.063 -36.342,1.672 v -36.969 c 0.696,-14.341 3.063,-24.574 7.101,-30.701 4.038,-6.265 6.825,-9.468 8.356,-9.607 1.532,-0.139 2.367,-0.209 2.506,-0.209 2.089,0 4.386,1.532 6.892,4.596 4.316,5.151 6.475,13.366 6.475,24.644 0,2.228 1.114,4.663 3.342,7.309 2.367,2.506 5.985,3.759 10.859,3.759 6.265,0 10.651,-2.297 13.158,-6.892 l 18.17,-31.119 c -5.709,-6.266 -12.74,-11.487 -21.094,-15.664 -8.354,-4.038 -17.962,-6.057 -28.822,-6.057 z m 368.074,18.945 c -37.996,0 -64.499,20.473 -70.275,41.895 -7.324,27.16 -6.857,71.55 11.574,113.111 39.502,89.07 200.446,157.147 297.172,62.625 -40.659,11.1 -114.985,7.542 -145.418,-26.644 -9.705,-10.902 -19.29,-25.911 -7.277,-51.276 22.106,-46.679 100.346,-52.873 152.695,-97.816 -299.713,76.482 -248.653,-25.029 -238.471,-41.895 z m -983.7829,5.491 c -23.9488,0 -45.5294,6.058 -64.7442,18.171 -19.0754,11.975 -34.0438,27.639 -44.9043,46.993 -10.8604,19.354 -16.291,40.587 -16.291,63.701 0,23.113 5.4306,44.347 16.291,63.701 10.8605,19.354 25.8289,35.018 44.9043,46.992 19.2148,11.975 40.7954,17.963 64.7442,17.963 33.417,0 62.2395,-11.696 86.4668,-35.088 v -48.664 l -9.1895,1.67 c -10.0251,17.962 -17.1255,29.588 -21.3027,34.879 -4.0379,5.152 -8.9822,9.677 -14.8301,13.576 -11.2783,7.519 -22.1373,11.279 -32.5801,11.279 -9.3289,0 -18.729,-2.855 -28.1972,-8.564 -12.2528,-7.38 -23.3213,-18.797 -33.2071,-34.252 -14.2023,-22.278 -21.3027,-46.575 -21.3027,-72.891 0,-27.708 6.1958,-50.821 18.5879,-69.34 9.1897,-13.783 21.0252,-22.626 35.5058,-26.525 6.4049,-1.253 12.4613,-1.879 18.17,-1.879 11.5567,0 21.6505,2.645 30.2832,7.936 10.0251,6.126 17.9625,14.341 23.8105,24.644 5.9872,10.304 8.9805,22.628 8.9805,36.969 l 25.2715,-6.475 v -49.291 c -24.9235,-23.67 -53.746,-35.505 -86.4668,-35.505 z m 785.0919,0.209 c -3.063,0 -6.057,0.558 -8.981,1.671 -4.456,1.95 -7.521,4.178 -9.191,6.684 -1.254,1.949 -4.246,5.429 -8.98,10.441 -4.595,5.013 -9.119,8.494 -13.575,10.444 -0.696,0 -1.464,0.279 -2.299,0.836 -0.696,0.417 -2.644,1.252 -5.847,2.506 l -6.684,23.81 20.26,-8.564 c 10.999,-4.874 24.785,-9.12 41.354,-12.741 l 2.923,-1.252 c 7.658,-3.48 11.487,-8.702 11.487,-15.664 0,-1.67 -0.347,-3.412 -1.043,-5.222 -2.785,-8.633 -9.259,-12.949 -19.424,-12.949 z m 496.869,41.126 v 0 c -1.287,-0.1 -2.617,-0.08 -3.988,0.06 -14.626,1.486 -33.947,16.74 -55.719,54.004 84.316,-51.42 66.094,49.559 0,81.555 98.06,-19.937 99.599,-132.646 59.707,-135.62 z m -1068.5098,26.961 -4.1757,0.209 c 0.3185,0 0.5858,0.04 0.9023,0.04 1.1634,-0.04 2.082,-0.223 3.2734,-0.248 z m -3.2734,0.248 c -32.1473,1.124 -53.8535,8.319 -64.6035,21.891 v 44.695 l 25.4805,-6.265 c 4.0379,-16.291 8.4221,-27.638 13.1562,-34.043 4.8733,-6.405 11.906,-9.677 21.0957,-9.817 7.2403,0 13.7848,4.247 19.6328,12.741 5.9872,8.354 8.9805,23.183 8.9805,44.486 -0.1392,0.557 -1.323,1.322 -3.5508,2.297 l -2.0879,0.627 c -23.1134,4.455 -41.2842,9.119 -54.5117,13.992 -13.0884,4.873 -22.2095,10.653 -27.3613,17.336 -5.1518,6.544 -7.7266,14.273 -7.7266,23.184 0,11.279 3.2722,21.371 9.8164,30.283 12.2529,16.569 32.9287,24.853 62.0293,24.853 h 3.3418 c 15.7338,-0.557 28.4043,-3.341 38.0117,-8.353 6.5441,4.177 23.9497,6.265 52.2149,6.265 l 3.9687,-17.961 h -15.873 c -5.9872,0 -8.9824,-5.639 -8.9824,-16.918 v -84.585 c 0,-7.24 -0.6257,-14.62 -1.8789,-22.139 -4.5611,-28.197 -28.3117,-42.362 -71.1524,-42.569 z m 549.0152,-0.04 c -16.151,0 -31.12,4.247 -44.904,12.741 -13.785,8.493 -24.715,19.631 -32.791,33.416 -8.076,13.645 -12.113,28.962 -12.113,45.949 0,16.708 3.83,32.372 11.488,46.992 7.658,14.481 18.447,26.456 32.371,35.924 13.924,9.468 29.727,14.203 47.41,14.203 16.708,0 33.209,-4.735 49.5,-14.203 19.494,-11.557 29.241,-20.19 29.241,-25.899 0,-2.227 -1.254,-4.525 -3.76,-6.892 -2.506,-2.506 -6.893,-3.76 -13.158,-3.76 -5.431,1.114 -9.052,3.481 -10.862,7.102 -1.81,3.341 -4.524,6.753 -8.144,10.234 -3.62,3.342 -7.659,6.126 -12.113,8.354 -4.317,2.088 -8.425,3.132 -12.323,3.132 -3.481,0 -7.311,-0.416 -11.488,-1.252 -4.595,-0.835 -10.652,-5.221 -18.17,-13.158 -7.38,-8.076 -14.411,-20.12 -21.094,-36.133 -5.291,-13.227 -8.423,-25.898 -9.398,-38.011 h 124.894 c -2.784,-13.924 -6.403,-25.481 -10.859,-34.67 -4.455,-9.329 -11.349,-17.683 -20.678,-25.063 -16.57,-12.67 -34.252,-19.006 -53.049,-19.006 z m -16.5,21.512 c 2.645,0.139 6.684,1.672 12.114,4.596 5.431,2.924 11.07,7.727 16.918,14.41 5.987,6.544 10.094,13.577 12.322,21.096 h -66.207 c 0,-14.481 2.159,-24.995 6.475,-31.539 3.342,-3.481 6.125,-5.64 8.353,-6.475 2.367,-0.975 5.709,-1.67 10.025,-2.088 z m -508.982,71.43 v 45.947 c 0,9.468 -1.9489,16.778 -5.8476,21.93 -3.8987,5.152 -7.6591,7.728 -11.2793,7.728 -6.5441,0 -12.2517,-3.481 -17.125,-10.443 -4.8733,-6.962 -7.3106,-16.5 -7.3106,-28.613 0,-4.038 0.279,-8.146 0.836,-12.323 0.6961,-4.316 2.4359,-8.075 5.2207,-11.277 2.924,-3.342 7.7287,-6.197 14.4121,-8.564 6.8226,-2.367 13.8533,-3.828 21.0937,-4.385 z m 19.5039,130.049 c -7.0743,0 -11.9025,0.128 -14.4844,0.386 -1.136,0.05 -2.2211,0.08 -3.2539,0.08 -1.4458,0 -3.098,-0.05 -4.957,-0.154 -3.4597,-0.207 -8.7775,-0.31 -15.9551,-0.31 l -1.4726,6.74 h 7.5136 c 0.5164,0 0.955,0.08 1.3165,0.23 0.4131,0.104 0.8536,0.595 1.3183,1.473 0.5163,0.826 0.7735,2.401 0.7735,4.725 v 66.302 c 0,2.944 -0.2326,4.596 -0.6973,4.957 -0.4647,0.362 -1.3684,0.541 -2.711,0.541 h -5.5761 l -1.5489,6.741 c 5.267,0 11.4885,-0.182 18.6661,-0.543 24.4761,0.361 39.5807,0.543 45.3125,0.543 l 2.5547,-20.452 c -2.8918,-0.62 -6.0922,-1.421 -9.6036,-2.402 -0.6196,6.351 -1.4987,10.379 -2.6347,12.084 -1.0844,1.704 -3.1242,2.738 -6.1192,3.1 -2.995,0.361 -8.1842,0.541 -15.5683,0.541 -0.6713,0 -1.1874,-0.05 -1.5489,-0.155 -0.3614,-0.103 -0.7489,-0.517 -1.1621,-1.24 -0.413,-0.775 -0.6191,-2.349 -0.6191,-4.724 l -0.076,-66.225 c 0,-2.892 0.2326,-4.52 0.6973,-4.881 0.5164,-0.413 1.42,-0.617 2.7109,-0.617 h 2.9434 c 1.8073,0 3.2005,-2.248 4.1816,-6.74 z m 181.461,0 c -0.3099,1.6 -0.5424,2.71 -0.6973,3.33 -0.1033,0.568 -0.3358,1.704 -0.6973,3.408 h 7.5137 c 2.2721,0 3.4082,2.168 3.4082,6.506 v 66.224 c 0,2.892 -0.257,4.544 -0.7734,4.957 -0.4648,0.362 -1.3439,0.543 -2.6348,0.543 h -5.5762 l -1.6269,6.739 c 8.0038,0 12.883,-0.129 14.6386,-0.387 0.9811,-0.103 2.0398,-0.154 3.1758,-0.154 0.9811,0 1.8602,0.03 2.6348,0.08 4.0277,0.31 10.1206,0.465 18.2793,0.465 l 1.4707,-6.741 h -7.5117 c -1.1877,0 -2.1178,-0.618 -2.7891,-1.857 -0.3615,-0.671 -0.543,-2.195 -0.543,-4.57 v -71.879 h 8.6758 c 2.5819,0 5.0602,1.291 7.4356,3.873 2.4269,2.582 4.2606,6.841 5.5,12.779 0.6196,2.995 0.9297,5.81 0.9297,8.443 0,8.469 -2.3764,13.426 -7.127,14.871 -1.4459,0.362 -4.4403,0.543 -8.9844,0.543 h -2.0136 l -1.4727,6.739 c 1.3943,0 3.073,0.489 5.0352,1.47 3.0466,1.498 5.6289,4.39 7.7461,8.676 0.7745,1.55 1.6252,3.485 2.5546,5.809 5.2671,12.702 9.7097,20.035 13.3243,21.998 1.6007,0.413 3.304,0.619 5.1113,0.619 1.4459,0 3.0716,-0.103 4.8789,-0.309 2.9433,-0.31 7.4879,-0.464 13.6328,-0.464 l 1.5488,-6.817 -6.5839,0.154 c -0.6196,0 -1.8069,-0.593 -3.5626,-1.781 -1.704,-1.239 -3.4337,-3.589 -5.1894,-7.049 -2.8917,-6.61 -4.905,-10.87 -6.041,-12.781 -4.0277,-8.262 -6.6611,-12.521 -7.9004,-12.779 2.6851,-1.136 5.551,-4.002 8.5976,-8.598 3.0466,-4.647 4.5684,-9.758 4.5684,-15.336 0,-4.854 -1.1607,-9.27 -3.4844,-13.246 -2.3236,-3.976 -5.6036,-7.203 -9.8379,-9.681 -4.1826,-2.53 -8.9333,-3.795 -14.2519,-3.795 -6.0932,0 -10.9724,0.128 -14.6387,0.386 -2.3236,0.104 -4.2349,0.157 -5.7324,0.157 -0.9811,0 -1.8582,-0.03 -2.6328,-0.08 -4.0277,-0.31 -10.1471,-0.464 -18.3574,-0.464 z m -109.5352,23.394 -1.5508,0.08 c 0.111,0 0.2042,0.01 0.3145,0.01 0.4391,-0.02 0.7864,-0.09 1.2363,-0.09 z m -1.2363,0.09 c -11.909,0.419 -19.9534,3.085 -23.9375,8.115 v 16.576 l 9.4492,-2.324 c 1.4975,-6.041 3.1252,-10.25 4.8809,-12.625 1.8072,-2.374 4.4142,-3.587 7.8222,-3.641 2.6852,0 5.1125,1.575 7.2813,4.725 2.2204,3.098 3.33,8.597 3.33,16.498 -0.052,0.207 -0.4902,0.492 -1.3164,0.854 l -0.7753,0.23 c -8.5718,1.653 -15.3094,3.384 -20.2149,5.192 -4.8539,1.807 -8.2378,3.949 -10.1484,6.427 -1.9106,2.427 -2.8653,5.295 -2.8653,8.6 0,4.182 1.2137,7.925 3.6407,11.23 4.544,6.145 12.2117,9.217 23.0039,9.217 h 1.2402 v 0 c 5.8351,-0.207 10.5347,-1.239 14.0977,-3.098 2.427,1.549 8.8808,2.325 19.3632,2.325 l 1.4707,-6.662 h -5.8867 c -2.2204,0 -3.3301,-2.091 -3.3301,-6.274 v -31.369 c 0,-2.685 -0.2325,-5.422 -0.6972,-8.211 -1.6923,-10.461 -10.507,-15.715 -26.4082,-15.787 z m 242.2597,-0.09 c -5.9899,0 -11.5402,1.575 -16.6523,4.725 -5.1121,3.15 -9.1652,7.28 -12.1602,12.392 -2.995,5.113 -4.4921,10.767 -4.4921,16.963 0,6.249 1.4197,12.083 4.2597,17.504 2.8917,5.371 6.8938,9.813 12.0059,13.324 5.1637,3.512 11.0241,5.268 17.582,5.268 6.4547,0 12.1865,-1.731 17.1953,-5.191 5.0096,-3.512 8.8566,-7.953 11.5406,-13.323 2.737,-5.37 4.106,-11.179 4.106,-17.427 0,-6.196 -1.551,-11.851 -4.649,-16.963 -3.098,-5.164 -7.228,-9.319 -12.3921,-12.469 -5.1121,-3.201 -10.5604,-4.803 -16.3438,-4.803 z m 227.7809,0 -1.548,0.08 c 0.11,0 0.202,0.01 0.312,0.01 0.439,-0.02 0.786,-0.09 1.236,-0.09 z m -1.236,0.09 c -11.909,0.419 -19.954,3.085 -23.937,8.115 v 16.576 l 9.449,-2.324 c 1.498,-6.041 3.125,-10.25 4.881,-12.625 1.807,-2.374 4.414,-3.587 7.822,-3.641 2.685,0 5.112,1.575 7.281,4.725 2.221,3.098 3.33,8.597 3.33,16.498 -0.05,0.207 -0.49,0.492 -1.316,0.854 l -0.776,0.23 c -8.571,1.653 -15.308,3.384 -20.214,5.192 -4.854,1.807 -8.238,3.949 -10.149,6.427 -1.91,2.427 -2.863,5.295 -2.863,8.6 0,4.182 1.212,7.925 3.639,11.23 4.544,6.145 12.213,9.217 23.005,9.217 h 1.239 v 0 c 5.834,-0.207 10.534,-1.239 14.097,-3.098 2.427,1.549 8.881,2.325 19.364,2.325 l 1.47,-6.662 h -5.884 c -2.221,0 -3.332,-2.091 -3.332,-6.274 v -31.369 c 0,-2.685 -0.233,-5.422 -0.698,-8.211 -1.692,-10.462 -10.506,-15.715 -26.408,-15.787 z m -147.262,-0.02 c -4.389,0 -8.209,0.543 -11.463,1.627 -6.557,2.117 -10.894,5.346 -13.011,9.684 -1.033,2.22 -1.549,5.084 -1.549,8.596 0,1.239 0.283,3.021 0.851,5.345 1.652,7.488 8.751,13.658 21.299,18.512 6.352,2.323 10.768,4.053 13.246,5.189 2.221,1.24 3.33,2.918 3.33,5.036 -0.31,3.356 -1.497,5.835 -3.562,7.435 -2.065,1.343 -4.984,2.014 -8.754,2.014 -2.685,0 -5.524,-1.471 -8.519,-4.414 -2.995,-2.996 -5.757,-7.617 -8.288,-13.865 l -8.519,1.627 v 13.63 c 3.408,3.047 6.996,5.423 10.766,7.127 3.769,1.704 8.261,2.557 13.476,2.557 5.835,0 11.154,-1.189 15.957,-3.564 7.074,-3.512 10.611,-8.495 10.611,-14.95 0,-4.957 -0.877,-9.061 -2.632,-12.314 -1.704,-3.305 -4.028,-6.018 -6.971,-8.135 -2.892,-2.117 -5.965,-3.769 -9.219,-4.957 -3.252,-1.187 -6.378,-2.22 -9.373,-3.098 -2.323,-0.619 -4.337,-1.213 -6.041,-1.781 -1.653,-0.62 -2.917,-1.291 -3.795,-2.014 -0.826,-0.723 -1.238,-1.781 -1.238,-3.175 0,-1.601 0.412,-3.072 1.238,-4.414 0.827,-1.343 1.911,-2.428 3.254,-3.254 2.22,-1.24 4.413,-1.86 6.582,-1.86 3.821,0.207 7.05,1.912 9.684,5.114 2.685,3.201 5.189,7.564 7.513,13.089 l 8.596,-1.935 v -13.4 c -6.971,-6.146 -14.793,-9.297 -23.469,-9.452 z m 73.785,0 c -4.389,0 -8.211,0.543 -11.464,1.627 -6.558,2.117 -10.895,5.346 -13.012,9.684 -1.033,2.22 -1.551,5.084 -1.551,8.596 0,1.239 0.286,3.021 0.854,5.345 1.652,7.488 8.752,13.658 21.3,18.512 6.352,2.323 10.766,4.053 13.245,5.189 2.22,1.24 3.33,2.918 3.33,5.036 -0.31,3.356 -1.497,5.835 -3.563,7.435 -2.066,1.343 -4.982,2.014 -8.752,2.014 -2.685,0 -5.525,-1.471 -8.519,-4.414 -2.996,-2.996 -5.759,-7.617 -8.289,-13.865 l -8.52,1.627 v 13.63 c 3.408,3.047 6.996,5.423 10.766,7.127 3.77,1.704 8.263,2.557 13.478,2.557 5.835,0 11.153,-1.189 15.955,-3.564 7.074,-3.512 10.612,-8.495 10.612,-14.95 0,-4.957 -0.878,-9.061 -2.633,-12.314 -1.705,-3.305 -4.029,-6.018 -6.973,-8.135 -2.891,-2.117 -5.963,-3.769 -9.217,-4.957 -3.253,-1.187 -6.376,-2.22 -9.371,-3.098 -2.324,-0.619 -4.339,-1.213 -6.043,-1.781 -1.652,-0.62 -2.917,-1.291 -3.795,-2.014 -0.826,-0.723 -1.238,-1.781 -1.238,-3.175 0,-1.601 0.412,-3.072 1.238,-4.414 0.826,-1.343 1.912,-2.428 3.254,-3.254 2.221,-1.24 4.416,-1.86 6.584,-1.86 3.822,0.207 7.049,1.912 9.682,5.114 2.685,3.201 5.19,7.564 7.514,13.089 l 8.597,-1.935 v -13.4 c -6.971,-6.146 -14.794,-9.297 -23.469,-9.452 z m -159.5737,6.584 c 2.5818,0.155 5.5517,1.783 8.9082,4.881 3.3564,3.098 6.2223,7.152 8.5976,12.16 2.427,5.009 3.8202,9.166 4.1817,12.471 0.3614,3.305 0.543,5.886 0.543,7.744 0,9.863 -3.2536,16.37 -9.7598,19.52 -2.8401,-0.362 -6.222,-2.867 -10.1465,-7.514 -3.9244,-4.647 -6.8414,-9.783 -8.752,-15.412 -1.8589,-5.68 -2.789,-10.767 -2.789,-15.26 0,-1.91 0.2061,-3.975 0.6191,-6.195 1.0844,-5.887 3.9504,-10.019 8.5977,-12.395 z m -227.0059,27.885 v 17.039 c 0,3.511 -0.7221,6.224 -2.1679,8.135 -1.4459,1.911 -2.8411,2.865 -4.1836,2.865 -2.427,0 -4.5424,-1.291 -6.3497,-3.873 -1.8073,-2.581 -2.7128,-6.119 -2.7128,-10.611 0,-1.498 0.104,-3.021 0.3105,-4.571 0.2582,-1.6 0.9048,-2.993 1.9375,-4.181 1.0844,-1.24 2.8652,-2.299 5.3438,-3.176 2.5302,-0.878 5.1371,-1.42 7.8222,-1.627 z m 468.8046,0 v 17.039 c 0,3.511 -0.722,6.224 -2.168,8.135 -1.445,1.911 -2.839,2.865 -4.181,2.865 -2.428,0 -4.545,-1.291 -6.352,-3.873 -1.807,-2.581 -2.713,-6.119 -2.713,-10.611 0,-1.498 0.104,-3.021 0.311,-4.571 0.258,-1.6 0.904,-2.993 1.937,-4.181 1.084,-1.24 2.865,-2.299 5.344,-3.176 2.53,-0.878 5.137,-1.42 7.822,-1.627 z" /></g></svg>
