<?xml version="1.0" encoding="UTF-8" standalone="no"?>
<!-- Created with Inkscape (http://www.inkscape.org/) -->

<svg
   version="1.1"
   id="svg1"
   width="1432.4092"
   height="605.26172"
   viewBox="0 0 1432.4092 605.26173"
   sodipodi:docname="larossa_logo_2023.svg"
   inkscape:version="1.3.2 (091e20ef0f, 2023-11-25)"
   xml:space="preserve"
   xmlns:inkscape="http://www.inkscape.org/namespaces/inkscape"
   xmlns:sodipodi="http://sodipodi.sourceforge.net/DTD/sodipodi-0.dtd"
   xmlns:xlink="http://www.w3.org/1999/xlink"
   xmlns="http://www.w3.org/2000/svg"
   xmlns:svg="http://www.w3.org/2000/svg"><defs
     id="defs1" /><sodipodi:namedview
     id="namedview1"
     pagecolor="#505050"
     bordercolor="#ffffff"
     borderopacity="1"
     inkscape:showpageshadow="0"
     inkscape:pageopacity="0"
     inkscape:pagecheckerboard="1"
     inkscape:deskcolor="#505050"
     inkscape:zoom="2"
     inkscape:cx="9164"
     inkscape:cy="-8936.75"
     inkscape:window-width="1920"
     inkscape:window-height="1011"
     inkscape:window-x="0"
     inkscape:window-y="0"
     inkscape:window-maximized="1"
     inkscape:current-layer="g1"
     showguides="true"><sodipodi:guide
       position="-7982.3875,-9411.1346"
       orientation="1,0"
       id="guide3"
       inkscape:locked="false" /><sodipodi:guide
       position="-7750.9664,-9411.1346"
       orientation="1,0"
       id="guide4"
       inkscape:locked="false" /><sodipodi:guide
       position="-7938.6798,-9333.1846"
       orientation="1,0"
       id="guide5"
       inkscape:locked="false" /><sodipodi:guide
       position="-7794.6741,-9342.8382"
       orientation="1,0"
       id="guide6"
       inkscape:locked="false" /><sodipodi:guide
       position="-6279.1302,-6795.7176"
       orientation="0,-1"
       id="guide13"
       inkscape:locked="false" /><sodipodi:guide
       position="-6946.8571,-7030.3212"
       orientation="0,-1"
       id="guide14"
       inkscape:locked="false" /><sodipodi:guide
       position="-7337.4462,-6126.602"
       orientation="0,-1"
       id="guide15"
       inkscape:locked="false" /><sodipodi:guide
       position="-7325.3579,-6117.0388"
       orientation="1,0"
       id="guide16"
       inkscape:locked="false" /><sodipodi:guide
       position="-7321.8295,-6126.602"
       orientation="1,0"
       id="guide17"
       inkscape:locked="false" /><sodipodi:guide
       position="-7335.0105,-6118.932"
       orientation="1,0"
       id="guide18"
       inkscape:locked="false" /><sodipodi:guide
       position="-7343.6076,-6132.3665"
       orientation="1,0"
       id="guide19"
       inkscape:locked="false" /><sodipodi:guide
       position="-7339.356,-6118.4223"
       orientation="0.99999683,0.002517453"
       id="guide20"
       inkscape:locked="false" /><sodipodi:guide
       position="-7354.1239,-6130.4296"
       orientation="0,-1"
       id="guide21"
       inkscape:locked="false" /><sodipodi:guide
       position="-7288.7381,-5893.393"
       orientation="1,0"
       id="guide22"
       inkscape:locked="false" /><sodipodi:guide
       position="-3242.116,-3459.9074"
       orientation="0,-1"
       id="guide25"
       inkscape:locked="false" /><sodipodi:guide
       position="-2976.8075,-3208.0227"
       orientation="0,-1"
       id="guide26"
       inkscape:locked="false" /><sodipodi:guide
       position="-2884.0991,-3208.0228"
       orientation="1,0"
       id="guide27"
       inkscape:locked="false" /><sodipodi:guide
       position="-3041.6833,-3031.5528"
       orientation="0,-1"
       id="guide28"
       inkscape:locked="false" /><sodipodi:guide
       position="-611.6788,-1953.9342"
       orientation="1,0"
       id="guide38"
       inkscape:locked="false" /></sodipodi:namedview><g
     inkscape:groupmode="layer"
     inkscape:label="Image"
     id="g1"
     transform="translate(-7988.2167,9217.7323)"><text
       xml:space="preserve"
       style="font-style:normal;font-variant:normal;font-weight:bold;font-stretch:normal;font-size:70.2774px;line-height:1.4;font-family:Quaaykop;-inkscape-font-specification:'Quaaykop, Bold';font-variant-ligatures:none;font-variant-caps:normal;font-variant-numeric:normal;font-variant-east-asian:normal;text-align:center;letter-spacing:6px;text-anchor:middle;fill:#f9f9f9;stroke-width:2.00001;stroke-linecap:round;stroke-linejoin:round;stroke-miterlimit:0;stroke-dashoffset:0.377953;paint-order:fill markers stroke"
       id="text2"
       transform="translate(1.7791591,-19.62238)"><textPath
         xlink:href="#path3"
         startOffset="50%"
         id="textPath6"><tspan
           id="tspan2"
           style="letter-spacing:6px;fill:#f9f9f9;stroke-width:2.00001">La Rossa</tspan></textPath></text><text
       xml:space="preserve"
       style="font-style:normal;font-variant:normal;font-weight:bold;font-stretch:normal;font-size:93.0615px;line-height:1.4;font-family:Quaaykop;-inkscape-font-specification:'Quaaykop, Bold';font-variant-ligatures:none;font-variant-caps:normal;font-variant-numeric:normal;font-variant-east-asian:normal;text-align:center;letter-spacing:3px;text-anchor:middle;fill:#f9f9f9;stroke-width:1.99999;stroke-linecap:round;stroke-linejoin:round;stroke-miterlimit:0;stroke-dashoffset:0.377953;paint-order:fill markers stroke"
       id="text3"
       transform="translate(1853.0287,-2779.7892)"><textPath
         xlink:href="#circle7"
         startOffset="50%"
         id="textPath7"><tspan
           id="tspan3"
           style="letter-spacing:3px;fill:#f9f9f9;stroke-width:1.99999">Caffé</tspan></textPath></text><circle
       style="fill:none;stroke:none;stroke-width:1.99999;stroke-linecap:round;stroke-linejoin:round;stroke-miterlimit:0;stroke-dashoffset:0.377953;paint-order:fill markers stroke"
       id="path3"
       cx="1540.4054"
       cy="-691.37866"
       r="191.32388"
       transform="matrix(0,-1,-1,0,0,0)" /><circle
       style="fill:none;stroke:none;stroke-width:2;stroke-linecap:round;stroke-linejoin:round;stroke-miterlimit:0;stroke-dashoffset:0.377953;paint-order:fill markers stroke"
       id="circle7"
       cx="-1540.4054"
       cy="-691.37866"
       r="211.75333"
       transform="rotate(90)" /><text
       xml:space="preserve"
       style="font-style:normal;font-variant:normal;font-weight:bold;font-stretch:normal;font-size:70.2774px;line-height:1.4;font-family:Quaaykop;-inkscape-font-specification:'Quaaykop, Bold';font-variant-ligatures:none;font-variant-caps:normal;font-variant-numeric:normal;font-variant-east-asian:normal;text-align:center;letter-spacing:6px;text-anchor:middle;fill:#f9f9f9;stroke-width:2.00001;stroke-linecap:round;stroke-linejoin:round;stroke-miterlimit:0;stroke-dashoffset:0.377953;paint-order:fill markers stroke"
       id="text8"
       transform="translate(33.743998,513.9937)"><textPath
         xlink:href="#path3"
         startOffset="50%"
         id="textPath8"><tspan
           id="tspan8"
           style="letter-spacing:6px;fill:#f9f9f9;stroke-width:2.00001">La Rossa</tspan></textPath></text><text
       xml:space="preserve"
       style="font-style:normal;font-variant:normal;font-weight:bold;font-stretch:normal;font-size:93.0615px;line-height:1.4;font-family:Quaaykop;-inkscape-font-specification:'Quaaykop, Bold';font-variant-ligatures:none;font-variant-caps:normal;font-variant-numeric:normal;font-variant-east-asian:normal;text-align:center;letter-spacing:3px;text-anchor:middle;fill:#f9f9f9;stroke-width:1.99999;stroke-linecap:round;stroke-linejoin:round;stroke-miterlimit:0;stroke-dashoffset:0.377953;paint-order:fill markers stroke"
       id="text9"
       transform="translate(30.804847,643.18994)"><textPath
         xlink:href="#circle7"
         startOffset="50%"
         id="textPath9"><tspan
           id="tspan9"
           style="letter-spacing:3px;fill:#f9f9f9;stroke-width:1.99999">Caffé</tspan></textPath></text><path
       id="text38"
       style="font-weight:bold;font-size:427.738px;line-height:1.4;font-family:Quaaykop;-inkscape-font-specification:'Quaaykop, Bold';font-variant-ligatures:none;text-align:center;letter-spacing:26.7335px;text-anchor:middle;fill:#ff0000;stroke-width:2;stroke-linecap:round;stroke-linejoin:round;stroke-miterlimit:0;stroke-dashoffset:0.377953;paint-order:fill markers stroke"
       d="m 9230.7636,-9217.7324 c 0,0 -125.6033,33.6224 -101.914,60.0918 23.6894,26.4696 54.8676,7.0587 101.914,20.7207 30.6289,8.895 25.2546,70.6456 -47.3359,83.9492 17.1356,23.2002 231.0805,-51.1878 152.9824,-104.6699 -62.5915,-42.8639 -254.9881,20.7215 -105.6465,-60.0918 z m -664.8515,145.8164 c -10.8605,0 -21.5104,2.1582 -31.9531,6.4746 -18.3794,7.3796 -31.2591,19.6316 -38.6387,36.7579 -4.5948,10.3035 -6.8926,26.039 -6.8926,47.2031 v 8.1445 l -21.9297,0.418 -3.5508,17.7519 c 14.063,0 22.5565,0.07 25.4805,0.209 v 126.9863 c 0,7.7974 -0.6277,12.2514 -1.8808,13.3653 -1.2532,0.9746 -3.6187,1.4629 -7.0997,1.4629 h -15.039 l -4.3848,18.1699 c 21.4426,0 35.9226,-0.4165 43.4414,-1.252 1.3924,-0.1392 2.9249,-0.2089 4.5957,-0.2089 5.7087,0 11.0695,0.1395 16.0821,0.4179 7.2403,0.6962 23.3904,1.043 48.4531,1.043 l 3.9687,-18.1699 h -28.6133 c -1.3924,0 -2.5761,-0.1395 -3.5507,-0.418 -0.9747,-0.4177 -2.1584,-1.7409 -3.5508,-3.9687 -1.2531,-2.2278 -1.8789,-6.5443 -1.8789,-12.9493 v -122.5976 l 30.9101,1.4609 5.4317,-25.0625 -36.3418,1.6719 v -36.9688 c 0.6962,-14.3414 3.0637,-24.5747 7.1015,-30.7011 4.038,-6.2657 6.822,-9.4682 8.3536,-9.6075 1.5316,-0.1392 2.3665,-0.2089 2.5058,-0.2089 2.0885,0 4.3863,1.5325 6.8926,4.5957 4.3164,5.1518 6.4746,13.3662 6.4746,24.6445 0,2.2278 1.114,4.6631 3.3418,7.3086 2.3671,2.5063 5.9881,3.7598 10.8613,3.7598 6.2658,0 10.652,-2.2978 13.1582,-6.8926 l 18.17,-31.1192 c -5.7088,-6.2657 -12.7415,-11.4869 -21.0958,-15.664 -8.3542,-4.0379 -17.9617,-6.0567 -28.8222,-6.0567 z m 163.9531,0 c -10.8605,0 -21.5122,2.1582 -31.9551,6.4746 -18.3793,7.3796 -31.259,19.6316 -38.6386,36.7579 -4.5949,10.3035 -6.8926,26.039 -6.8926,47.2031 v 8.1445 l -21.9297,0.418 -3.5508,17.7519 c 14.063,0 22.5565,0.07 25.4805,0.209 v 126.9863 c 0,7.7974 -0.6258,12.2514 -1.8789,13.3653 -1.2532,0.9746 -3.6207,1.4629 -7.1016,1.4629 h -15.0371 l -4.3867,18.1699 c 21.4426,0 35.9245,-0.4165 43.4433,-1.252 1.3924,-0.1392 2.9229,-0.2089 4.5938,-0.2089 5.7087,0 11.0694,0.1395 16.082,0.4179 7.2404,0.6962 23.3923,1.043 48.4551,1.043 l 3.9688,-18.1699 h -28.6133 c -1.3924,0 -2.5761,-0.1395 -3.5508,-0.418 -0.9747,-0.4177 -2.1585,-1.7409 -3.5508,-3.9687 -1.2531,-2.2278 -1.8808,-6.5443 -1.8808,-12.9493 v -122.5976 l 30.9121,1.4609 5.4296,-25.0625 -36.3417,1.6719 v -36.9688 c 0.6961,-14.3414 3.0636,-24.5747 7.1015,-30.7011 4.0379,-6.2657 6.8239,-9.4682 8.3555,-9.6075 1.5316,-0.1392 2.3666,-0.2089 2.5058,-0.2089 2.0886,0 4.3864,1.5325 6.8926,4.5957 4.3163,5.1518 6.4746,13.3662 6.4746,24.6445 0,2.2278 1.114,4.6631 3.3418,7.3086 2.3671,2.5063 5.9861,3.7598 10.8594,3.7598 6.2657,0 10.6519,-2.2978 13.1582,-6.8926 l 18.1699,-31.1192 c -5.7087,-6.2657 -12.7395,-11.4869 -21.0937,-15.664 -8.3542,-4.0379 -17.9618,-6.0567 -28.8223,-6.0567 z m 368.0747,18.9453 c -37.996,0 -64.4994,20.4729 -70.2759,41.8946 -7.3238,27.1604 -6.8573,71.5506 11.5743,113.1113 39.5019,89.0702 200.4455,157.1468 297.1718,62.625 -40.6593,11.0996 -114.9854,7.5414 -145.4179,-26.6445 -9.705,-10.9014 -19.2897,-25.9111 -7.2774,-51.2754 22.1067,-46.6796 100.3467,-52.8735 152.6953,-97.8164 -299.7127,76.4817 -248.6522,-25.0289 -238.4702,-41.8946 z m -983.7837,5.4903 c -23.9488,0 -45.5293,6.0582 -64.7441,18.1719 -19.0755,11.9744 -34.0438,27.6382 -44.9043,46.9921 -10.8605,19.3541 -16.291,40.5878 -16.291,63.7012 0,23.1135 5.4305,44.3471 16.291,63.7012 10.8605,19.354 25.8288,35.0177 44.9043,46.9922 19.2148,11.9744 40.7953,17.9629 64.7441,17.9629 33.4171,0 62.2395,-11.696 86.4668,-35.0879 v -48.6641 l -9.1894,1.6699 c -10.0251,17.9617 -17.1256,29.5879 -21.3028,34.8789 -4.0379,5.1518 -8.9821,9.6775 -14.83,13.5762 -11.2783,7.5189 -22.1373,11.2793 -32.5801,11.2793 -9.3289,0 -18.7291,-2.8557 -28.1973,-8.5644 -12.2528,-7.3796 -23.3212,-18.7966 -33.207,-34.252 -14.2023,-22.278 -21.3028,-46.5747 -21.3028,-72.8906 0,-27.7083 6.1958,-50.8213 18.5879,-69.3399 9.1897,-13.7845 21.0252,-22.6267 35.5059,-26.5254 6.4049,-1.2531 12.4612,-1.8789 18.1699,-1.8789 11.5567,0 21.6505,2.6446 30.2832,7.9356 10.0251,6.1264 17.9626,14.3409 23.8106,24.6445 5.9872,10.3036 8.9804,22.6273 8.9804,36.9688 l 25.2715,-6.4746 v -49.2911 c -24.9235,-23.6703 -53.7459,-35.5058 -86.4668,-35.5058 z m 785.0918,0.209 c -3.0632,0 -6.0564,0.558 -8.9804,1.6718 -4.4556,1.9494 -7.5206,4.1774 -9.1915,6.6836 -1.2531,1.9494 -4.2464,5.4289 -8.9804,10.4414 -4.5949,5.0126 -9.1186,8.4941 -13.5742,10.4434 -0.6962,0 -1.4635,0.279 -2.2989,0.8359 -0.6962,0.4178 -2.6452,1.2528 -5.8476,2.5059 l -6.6836,23.8105 20.2597,-8.5644 c 10.9998,-4.8733 24.7843,-9.12 41.3536,-12.7402 l 2.9238,-1.252 c 7.658,-3.4809 11.4863,-8.7022 11.4863,-15.6641 0,-1.6708 -0.3468,-3.4126 -1.0429,-5.2226 -2.7848,-8.6327 -9.2595,-12.9492 -19.4239,-12.9492 z m 496.8692,41.1289 c -1.2869,-0.096 -2.6171,-0.077 -3.9883,0.062 -14.6262,1.4851 -33.9465,16.7378 -55.7188,54.0019 84.3161,-51.4207 66.0935,49.5589 0,81.5547 98.0595,-19.9373 99.5992,-132.6452 59.7071,-135.6191 z m -1068.5098,26.959 c -34.1132,0.6961 -56.738,8.0756 -67.877,22.1386 v 44.6953 l 25.4805,-6.2656 c 4.0379,-16.2908 8.4222,-27.638 13.1563,-34.043 4.8733,-6.4049 11.906,-9.6772 21.0957,-9.8164 7.2403,0 13.7848,4.2468 19.6328,12.7403 5.9872,8.3542 8.9804,23.183 8.9804,44.4863 -0.1392,0.557 -1.3229,1.3222 -3.5507,2.2969 l -2.0879,0.6269 c -23.1135,4.4556 -41.2842,9.1189 -54.5117,13.9922 -13.0884,4.8733 -22.2096,10.6526 -27.3614,17.336 -5.1518,6.5441 -7.7265,14.2724 -7.7265,23.1835 0,11.2782 3.2722,21.372 9.8164,30.2833 12.2529,16.5692 32.9286,24.8535 62.0293,24.8535 h 3.3418 c 15.7338,-0.557 28.4043,-3.341 38.0117,-8.3535 6.5441,4.1771 23.9496,6.2656 52.2148,6.2656 l 3.9688,-17.961 h -15.8731 c -5.9872,0 -8.9824,-5.6397 -8.9824,-16.9179 v -84.586 c 0,-7.2403 -0.6257,-14.6198 -1.8789,-22.1386 -4.5948,-28.4045 -28.6126,-42.6075 -72.0547,-42.6075 z m 545.7422,0.2089 c -16.1515,0 -31.1198,4.2468 -44.9043,12.7403 -13.7845,8.4934 -24.7152,19.6315 -32.791,33.416 -8.0758,13.6452 -12.1133,28.9622 -12.1133,45.9492 0,16.7085 3.8302,32.3723 11.4883,46.9922 7.658,14.4807 18.4473,26.4557 32.3711,35.9238 13.9238,9.4682 29.727,14.2032 47.4101,14.2032 16.7085,0 33.2092,-4.735 49.5,-14.2032 19.4933,-11.5567 29.2403,-20.1897 29.2403,-25.8984 0,-2.2278 -1.2535,-4.5256 -3.7598,-6.8926 -2.5063,-2.5063 -6.8925,-3.7598 -13.1582,-3.7598 -5.4303,1.114 -9.0513,3.4814 -10.8613,7.1016 -1.8101,3.3417 -4.5244,6.7535 -8.1446,10.2344 -3.6202,3.3417 -7.6577,6.1257 -12.1133,8.3535 -4.3163,2.0885 -8.4236,3.1328 -12.3222,3.1328 -3.4809,0 -7.3112,-0.4165 -11.4883,-1.2519 -4.5949,-0.8354 -10.6511,-5.2217 -18.1699,-13.1582 -7.3796,-8.0758 -14.4104,-20.1205 -21.0938,-36.1329 -5.291,-13.2275 -8.4237,-25.898 -9.3984,-38.0117 h 124.8945 c -2.7847,-13.9237 -6.4038,-25.4802 -10.8594,-34.6699 -4.4555,-9.3289 -11.3488,-17.6829 -20.6777,-25.0625 -16.5692,-12.6707 -34.2517,-19.0059 -53.0488,-19.0059 z m -16.5,21.5118 c 2.6454,0.1392 6.683,1.6717 12.1133,4.5957 5.4302,2.924 11.0699,7.7267 16.9179,14.4101 5.9872,6.5441 10.0945,13.5769 12.3223,21.0957 h -66.207 c 0,-14.4807 2.1582,-24.9949 6.4746,-31.539 3.3417,-3.481 6.1257,-5.6393 8.3535,-6.4746 2.367,-0.9747 5.709,-1.6702 10.0254,-2.0879 z m -508.9824,71.4296 v 45.9473 c 0,9.4681 -1.949,16.7779 -5.8477,21.9297 -3.8987,5.1518 -7.6591,7.7285 -11.2793,7.7285 -6.5441,0 -12.2517,-3.4815 -17.125,-10.4433 -4.8733,-6.962 -7.3105,-16.4997 -7.3105,-28.6133 0,-4.0379 0.2789,-8.1452 0.8359,-12.3223 0.6961,-4.3164 2.4359,-8.0749 5.2207,-11.2773 2.924,-3.3417 7.7287,-6.1974 14.4121,-8.5645 6.8226,-2.367 13.8534,-3.8278 21.0938,-4.3848 z m -175.7207,156.2598 c -32.4926,0 -58.6543,26.1598 -58.6543,58.6524 0,32.4926 26.1617,58.6503 58.6543,58.6503 h 976.0136 c 32.4926,0 58.6524,-26.1577 58.6524,-58.6503 0,-32.4926 -26.1598,-58.6524 -58.6524,-58.6524 z m 537.6171,29.7305 c 5.375,0 10.2052,1.3593 14.4864,4.0781 4.3125,2.6875 7.6875,6.2031 10.125,10.5469 2.4375,4.3437 3.6543,9.1094 3.6543,14.2969 0,5.1563 -1.2168,9.9063 -3.6543,14.25 -2.4375,4.3438 -5.8125,7.8749 -10.125,10.5937 -4.2812,2.6875 -9.1114,4.0313 -14.4864,4.0313 -5.3749,0 -10.2168,-1.3438 -14.5293,-4.0313 -4.2812,-2.7188 -7.6425,-6.2499 -10.08,-10.5937 -2.4374,-4.3437 -3.6543,-9.0937 -3.6543,-14.25 0,-5.1875 1.2169,-9.9532 3.6543,-14.2969 2.4375,-4.3438 5.7988,-7.8594 10.08,-10.5469 4.3125,-2.7188 9.1544,-4.0781 14.5293,-4.0781 z m 124.4415,0.047 c 6.9687,0 13.0468,2.5312 18.2343,7.5937 v 11.0625 l -5.9043,1.3594 c 0,-3.8125 -0.6737,-6.7813 -2.0175,-8.9063 -1.3437,-2.1562 -2.9981,-3.7812 -4.9668,-4.875 -1.9688,-1.125 -4.0489,-1.703 -6.2364,-1.7343 -0.6562,0 -1.4062,0.062 -2.25,0.1875 -0.8125,0.125 -1.75,0.4843 -2.8125,1.0781 -1.0312,0.5625 -1.8437,1.375 -2.4375,2.4375 -0.5937,1.0625 -0.8886,2.7187 -0.8886,4.9687 0,1.6563 0.3905,3 1.1718,4.0313 1.6875,2.2187 5.0763,4.3906 10.17,6.5156 10.2187,4.1875 16.0313,8.8438 17.4375,13.9688 0.4063,1.5 0.6093,2.75 0.6093,3.75 0,0.3125 -0.031,0.5937 -0.094,0.8437 v 0.4688 c 0,5.3438 -2.5625,9.4063 -7.6875,12.1875 -3.5313,1.9063 -7.5313,2.8593 -12,2.8593 -3.9375,0 -7.3125,-0.6875 -10.125,-2.0625 -2.8125,-1.375 -5.4375,-3.2812 -7.875,-5.7187 v -10.9688 l 5.5781,-1.4531 c 0,4.4375 1.375,8.125 4.125,11.0625 2.7812,2.9375 5.8437,4.5 9.1875,4.6875 4.4062,0 7.3906,-1.5937 8.9531,-4.7812 0.4688,-0.9687 0.7032,-2.3282 0.7032,-4.0782 0,-0.3437 -0.047,-0.7968 -0.1407,-1.3593 -0.4687,-3.0937 -4.7031,-6.2812 -12.7031,-9.5625 -9.3125,-3.8125 -14.625,-8.2969 -15.9375,-13.4532 -0.4063,-1.5625 -0.6094,-2.828 -0.6094,-3.7968 0,-2.9375 0.3281,-5.1719 0.9844,-6.7032 0.6562,-1.5625 1.5469,-2.875 2.6719,-3.9375 3.7812,-3.7812 8.7344,-5.6718 14.8594,-5.6718 z m 116.8496,0 c 6.9688,0 13.0468,2.5312 18.2343,7.5937 v 11.0625 l -5.9043,1.3594 c 0,-3.8125 -0.6737,-6.7813 -2.0175,-8.9063 -1.3437,-2.1562 -2.9981,-3.7812 -4.9668,-4.875 -1.9688,-1.125 -4.0489,-1.703 -6.2364,-1.7343 -0.6562,0 -1.4062,0.062 -2.25,0.1875 -0.8125,0.125 -1.75,0.4843 -2.8125,1.0781 -1.0312,0.5625 -1.8437,1.375 -2.4375,2.4375 -0.5937,1.0625 -0.8886,2.7187 -0.8886,4.9687 0,1.6563 0.3905,3 1.1718,4.0313 1.6875,2.2187 5.0763,4.3906 10.17,6.5156 10.2188,4.1875 16.0313,8.8438 17.4375,13.9688 0.4063,1.5 0.6093,2.75 0.6093,3.75 0,0.3125 -0.031,0.5937 -0.094,0.8437 v 0.4688 c 0,5.3438 -2.5625,9.4063 -7.6875,12.1875 -3.5313,1.9063 -7.5313,2.8593 -12,2.8593 -3.9375,0 -7.3125,-0.6875 -10.125,-2.0625 -2.8125,-1.375 -5.4375,-3.2812 -7.875,-5.7187 v -10.9688 l 5.5781,-1.4531 c 0,4.4375 1.375,8.125 4.125,11.0625 2.7812,2.9375 5.8437,4.5 9.1875,4.6875 4.4062,0 7.3906,-1.5937 8.9531,-4.7812 0.4688,-0.9687 0.7032,-2.3282 0.7032,-4.0782 0,-0.3437 -0.047,-0.7968 -0.1407,-1.3593 -0.4687,-3.0937 -4.7031,-6.2812 -12.7031,-9.5625 -9.3125,-3.8125 -14.625,-8.2969 -15.9375,-13.4532 -0.4063,-1.5625 -0.6094,-2.828 -0.6094,-3.7968 0,-2.9375 0.3281,-5.1719 0.9844,-6.7032 0.6562,-1.5625 1.5469,-2.875 2.6719,-3.9375 3.7812,-3.7812 8.7344,-5.6718 14.8594,-5.6718 z m -591.836,0.094 20.3438,48.1406 c 1.3437,2.9063 2.4511,4.3594 3.3261,4.3594 h 3.8457 l -0.8906,4.0781 c -3.0938,0 -5.7051,-0.062 -7.8301,-0.1875 -0.7812,-0.094 -1.8437,-0.1406 -3.1875,-0.1406 -0.875,0 -1.6699,0.047 -2.3886,0.1406 -0.6875,0.062 -1.6095,0.1095 -2.7656,0.1407 -1.125,0.031 -3.3595,0.047 -6.7032,0.047 l 0.9356,-4.0781 h 2.8593 c 0.4688,0 0.877,-0.2969 1.2207,-0.8906 0.031,-0.125 0.047,-0.4218 0.047,-0.8906 0,-0.7187 -0.2032,-1.5782 -0.6093,-2.5782 l -4.4063,-10.2187 h -17.1094 l -4.0781,9.7969 c -0.2187,0.625 -0.3281,1.2812 -0.3281,1.9687 0,0.125 0.016,0.4531 0.047,0.9844 0.062,0.5 0.203,0.9375 0.4218,1.3125 0.2187,0.3437 0.6407,0.5156 1.2656,0.5156 h 3.5626 l -0.8907,4.0781 c -4.7187,0 -7.5156,-0.078 -8.3906,-0.2343 -0.4062,-0.062 -0.7812,-0.094 -1.125,-0.094 -0.2812,0 -0.5626,0.031 -0.8437,0.094 -1.5938,0.1563 -4.4844,0.2343 -8.6719,0.2343 l 0.9843,-4.0781 h 2.3438 c 0.6563,0 1.5625,-0.6406 2.7188,-1.9219 1.1874,-1.2812 2.125,-2.8125 2.8124,-4.5937 l 18.5157,-45.0469 z m 716.5606,0 20.3418,48.1406 c 1.3438,2.9063 2.455,4.3594 3.33,4.3594 h 3.8418 l -0.8886,4.0781 c -3.0938,0 -5.7032,-0.062 -7.8282,-0.1875 -0.7813,-0.094 -1.8438,-0.1406 -3.1875,-0.1406 -0.875,0 -1.6737,0.047 -2.3925,0.1406 -0.6875,0.062 -1.6094,0.1095 -2.7657,0.1407 -1.125,0.031 -3.3574,0.047 -6.7011,0.047 l 0.9375,-4.0781 h 2.8593 c 0.4687,0 0.8731,-0.2969 1.2168,-0.8906 0.031,-0.125 0.049,-0.4218 0.049,-0.8906 0,-0.7187 -0.2031,-1.5782 -0.6094,-2.5782 l -4.4063,-10.2187 h -17.1093 l -4.0782,9.7969 c -0.2188,0.625 -0.3281,1.2812 -0.3281,1.9687 0,0.125 0.016,0.4531 0.047,0.9844 0.062,0.5 0.2031,0.9375 0.4219,1.3125 0.2187,0.3437 0.6406,0.5156 1.2656,0.5156 h 3.5625 l -0.8906,4.0781 c -4.7187,0 -7.5157,-0.078 -8.3907,-0.2343 -0.4063,-0.062 -0.7813,-0.094 -1.125,-0.094 -0.2813,0 -0.5624,0.031 -0.8437,0.094 -1.5937,0.1563 -4.4844,0.2343 -8.6719,0.2343 l 0.9844,-4.0781 h 2.3437 c 0.6562,0 1.5626,-0.6406 2.7188,-1.9219 1.1875,-1.2812 2.125,-2.8125 2.8125,-4.5937 l 18.5156,-45.0469 z m -857.8789,1.0781 c 4.3438,0 7.5644,0.062 9.6582,0.1875 1.125,0.062 2.125,0.094 3,0.094 0.625,0 1.2793,-0.016 1.9668,-0.047 1.5625,-0.1563 4.4862,-0.2344 8.7675,-0.2344 -0.5938,2.7188 -1.4394,4.0782 -2.5332,4.0782 h -1.7793 c -0.7813,0 -1.33,0.125 -1.6425,0.375 -0.2812,0.2188 -0.42,1.2031 -0.42,2.9531 l 0.047,40.0781 c 0,1.4375 0.125,2.3906 0.375,2.8594 0.25,0.4375 0.4843,0.6875 0.7031,0.75 0.2187,0.062 0.5312,0.094 0.9375,0.094 4.4687,0 7.6094,-0.1074 9.4219,-0.3261 1.8125,-0.2188 3.0468,-0.8438 3.7031,-1.875 0.6875,-1.0313 1.2188,-3.4688 1.5938,-7.3125 2.125,0.5937 4.0625,1.0761 5.8125,1.4511 l -1.5469,12.375 c -3.4687,0 -12.6094,-0.1074 -27.4219,-0.3261 -4.3438,0.2187 -8.1093,0.3261 -11.2968,0.3261 l 0.9375,-4.0761 h 3.375 c 0.8125,0 1.3594,-0.1095 1.6406,-0.3282 0.2813,-0.2188 0.4219,-1.2188 0.4219,-3 v -40.125 c 0,-1.4063 -0.1563,-2.3593 -0.4688,-2.8593 -0.2812,-0.5313 -0.5469,-0.8282 -0.7969,-0.8907 -0.2188,-0.094 -0.4843,-0.1425 -0.7968,-0.1425 h -4.5469 z m 340.1875,0 c 4.9687,0 8.6718,0.094 11.1093,0.2813 0.4687,0.031 0.9981,0.047 1.5918,0.047 0.9063,0 2.0644,-0.031 3.4707,-0.094 2.2187,-0.1563 5.17,-0.2344 8.8575,-0.2344 3.2188,0 6.0938,0.7656 8.625,2.2969 2.5625,1.5 4.5487,3.4531 5.955,5.8594 1.4062,2.4062 2.1075,5.0781 2.1075,8.0156 0,3.375 -0.9219,6.4688 -2.7657,9.2813 -1.8437,2.7813 -3.5761,4.5156 -5.2011,5.2031 0.75,0.1562 2.3418,2.7344 4.7793,7.7344 0.6875,1.1563 1.9082,3.7343 3.6582,7.7343 1.0625,2.0938 2.1074,3.5157 3.1386,4.2657 1.0625,0.7188 1.7832,1.0781 2.1582,1.0781 l 3.9825,-0.094 -0.9375,4.125 c -3.7187,0 -6.4687,0.094 -8.25,0.2813 -1.0937,0.125 -2.0782,0.1875 -2.9532,0.1875 -1.0937,0 -2.1231,-0.125 -3.0918,-0.375 -2.1875,-1.1875 -4.875,-5.625 -8.0625,-13.3125 -0.5625,-1.4063 -1.0781,-2.5781 -1.5468,-3.5156 -1.2813,-2.5937 -2.8438,-4.3437 -4.6875,-5.25 -1.1875,-0.5937 -2.2051,-0.8907 -3.0489,-0.8907 l 0.8907,-4.0781 h 1.2207 c 2.75,0 4.5625,-0.1094 5.4375,-0.3281 2.875,-0.875 4.3125,-3.875 4.3125,-9 0,-1.5938 -0.1875,-3.2969 -0.5625,-5.1094 -0.75,-3.5938 -1.8595,-6.1719 -3.3282,-7.7344 -1.4375,-1.5625 -2.9375,-2.3437 -4.5,-2.3437 h -5.25 v 43.5 c 0,1.4375 0.1094,2.3593 0.3282,2.7656 0.4062,0.75 0.9687,1.125 1.6875,1.125 h 4.5468 l -0.8925,4.0781 c -4.9375,0 -8.625,-0.094 -11.0625,-0.2812 -0.4687,-0.031 -0.9981,-0.047 -1.5918,-0.047 -0.6875,0 -1.3301,0.031 -1.9239,0.094 -1.0625,0.1563 -4.0155,0.2343 -8.8593,0.2343 l 0.9843,-4.0781 h 3.375 c 0.7813,0 1.3144,-0.1094 1.5957,-0.3281 0.3125,-0.25 0.4668,-1.25 0.4668,-3 v -40.0781 c 0,-2.625 -0.6875,-3.9375 -2.0625,-3.9375 h -4.5468 c 0.2188,-1.0312 0.3593,-1.7187 0.4218,-2.0625 0.094,-0.375 0.2364,-1.0469 0.4239,-2.0157 z m 149.8496,3.8438 c -0.875,0 -1.7676,0.094 -2.6739,0.2812 -3.2499,0.875 -5.9043,2.8438 -7.9667,5.9063 -2.7813,4.1875 -4.1719,9.3907 -4.1719,15.6094 0,5.8438 1.5919,11.2656 4.7793,16.2656 2.2188,3.4687 4.7051,6.0312 7.455,7.6875 2.125,1.2812 4.2345,1.9219 6.3282,1.9219 0.8437,0 1.7011,-0.078 2.5761,-0.2344 3.2188,-0.8438 5.8614,-2.7969 7.9239,-5.8594 2.8125,-4.1563 4.2168,-9.3594 4.2168,-15.6094 -0.031,-6 -1.7032,-11.6094 -5.0157,-16.8281 -2.0625,-3.2188 -4.5625,-5.7031 -7.5,-7.4531 -1.875,-1.125 -3.8574,-1.6875 -5.9511,-1.6875 z m -353.6406,12.0937 -6.75,16.8282 h 13.7324 z m 716.5585,0 -6.75,16.8282 h 13.7364 z"
       inkscape:export-filename="../../images/logo/text38.png"
       inkscape:export-xdpi="96"
       inkscape:export-ydpi="96"
       sodipodi:nodetypes="csscscsccsccccscscccscccsccsccccccsscscscccssccsccccscscccscccsccsccccccsscscscccscsscssccscssscsccccssccsccscccccssccccccccccscsssccssccccccccccccscsccccssscccsscscsscscccccscccccccscscccccccsssssccccsssssssscssscscssscssccccccccsscccscscssccccccscccsccsssccccccccsscccscscssccccccscccsccssccscccscsccscsccccsccscccscccsccccccscccscsccscsccccsccscccscccsccccccsccssccccssscccccccssssccsccscscscsscccccccccsccccccscsccscssscccscccscsssccsssccscsscccccscccccccc" /></g></svg>
